<svg xmlns="http://www.w3.org/2000/svg" width="74" height="44" viewBox="0 0 74 44">
  <g id="Group_224" data-name="Group 224" transform="translate(-1422 -707.183)">
    <rect id="Rectangle_633" data-name="Rectangle 633" width="74" height="44" rx="5" transform="translate(1422 707.183)" fill="#e4e4e4"/>
    <rect id="Rectangle_634" data-name="Rectangle 634" width="37" height="6" rx="1" transform="translate(1453 715.183)" fill="#fff"/>
    <path id="Icon_awesome-servicestack" data-name="Icon awesome-servicestack" d="M3.039,9.709c2.821.35,9.451,3.506,10.5,7.951H0C3.436,17.382,6.371,12.965,3.039,9.709ZM4.144,4.5a6.485,6.485,0,0,1,1.6,4.578c2.863,1.155,7.158,4.239,8.066,8.581h3.315C15.721,10.254,7.693,5.031,4.144,4.5Z" transform="translate(1428 715.104)" fill="#fff"/>
    <rect id="Rectangle_637" data-name="Rectangle 637" width="37" height="6" rx="1" transform="translate(1453 723.183)" fill="#fff"/>
    <rect id="Rectangle_638" data-name="Rectangle 638" width="62" height="6" rx="1" transform="translate(1428 743.183)" fill="#fff"/>
    <rect id="Rectangle_639" data-name="Rectangle 639" width="37" height="6" rx="1" transform="translate(1453 731.183)" fill="#fff"/>
  </g>
</svg>
