<svg xmlns="http://www.w3.org/2000/svg" width="26" height="25" viewBox="0 0 26 25">
  <g id="Group_195" data-name="Group 195" transform="translate(-331 -265)">
    <g id="Group_193" data-name="Group 193" transform="translate(-361 4135.907)">
      <rect id="Rectangle_629" data-name="Rectangle 629" width="26" height="25" rx="4" transform="translate(692 -3870.907)" fill="#1b285c"/>
      <path id="Icon_zocial-call" data-name="Icon zocial-call" d="M3.3,6.239a1.229,1.229,0,0,1,.317-.67L6.159,3.055q.3-.251.444.084L8.655,6.951a.545.545,0,0,1-.106.649l-.931.922a1.038,1.038,0,0,0-.3.649,3.179,3.179,0,0,0,.656,1.613,13.79,13.79,0,0,0,1.29,1.676l.656.67c.2.2.451.437.762.723a12.762,12.762,0,0,0,1.533,1.131,3.45,3.45,0,0,0,1.682.7.926.926,0,0,0,.677-.272l1.1-1.089a.468.468,0,0,1,.634-.084l3.7,2.158a.306.306,0,0,1,.169.22.266.266,0,0,1-.085.241l-2.539,2.514a1.249,1.249,0,0,1-.676.314,5.165,5.165,0,0,1-2.338-.283,10.625,10.625,0,0,1-2.411-1.142q-1.111-.712-2.063-1.445T8.55,15.56L8,15.036q-.211-.209-.561-.576T6.222,13.015a21.038,21.038,0,0,1-1.5-2.105,12.226,12.226,0,0,1-1.1-2.336A4.924,4.924,0,0,1,3.3,6.239Z" transform="matrix(-0.719, 0.695, -0.695, -0.719, 721.31, -3857.811)" fill="#fff"/>
    </g>
  </g>
</svg>
