<svg xmlns="http://www.w3.org/2000/svg" width="35.596" height="24" viewBox="0 0 35.596 24">
  <path id="Icon_material-people" data-name="Icon material-people" d="M25.77,17.786a4.985,4.985,0,0,0,4.838-5.143A4.985,4.985,0,0,0,25.77,7.5a5,5,0,0,0-4.854,5.143A5,5,0,0,0,25.77,17.786Zm-12.944,0a4.985,4.985,0,0,0,4.838-5.143A4.985,4.985,0,0,0,12.826,7.5a5,5,0,0,0-4.854,5.143A5,5,0,0,0,12.826,17.786Zm0,3.429c-3.77,0-11.326,2.006-11.326,6V31.5H24.152V27.214C24.152,23.22,16.6,21.214,12.826,21.214Zm12.944,0c-.469,0-1,.034-1.569.086a7.332,7.332,0,0,1,3.187,5.914V31.5H37.1V27.214C37.1,23.22,29.54,21.214,25.77,21.214Z" transform="translate(-1.5 -7.5)" fill="#1b285c"/>
</svg>
