<svg xmlns="http://www.w3.org/2000/svg" width="26" height="25" viewBox="0 0 26 25">
  <path id="Icon_awesome-whatsapp-square" data-name="Icon awesome-whatsapp-square" d="M13,7.317a7.522,7.522,0,0,0-7.655,7.355,7.116,7.116,0,0,0,1.172,3.912l.18.279-.772,2.712,2.9-.731.279.162a7.862,7.862,0,0,0,3.894,1.027H13a7.594,7.594,0,0,0,7.736-7.355,7.255,7.255,0,0,0-2.327-5.2A7.747,7.747,0,0,0,13,7.317ZM17.5,17.83a2.346,2.346,0,0,1-1.55,1.049,4.639,4.639,0,0,1-2.757-.552A10.183,10.183,0,0,1,9.262,14.99a4.2,4.2,0,0,1-.94-2.288,2.438,2.438,0,0,1,.807-1.847.853.853,0,0,1,.615-.279c.151,0,.308,0,.441.006s.331-.05.517.379.65,1.529.708,1.641a.378.378,0,0,1,.017.385c-.441.848-.911.815-.673,1.205a6.2,6.2,0,0,0,3.128,2.628c.232.112.366.095.5-.056s.575-.647.725-.865.308-.184.517-.112,1.341.608,1.573.72.383.167.441.257A1.893,1.893,0,0,1,17.5,17.83ZM23.214,2.25H2.786A2.734,2.734,0,0,0,0,4.929V24.571A2.734,2.734,0,0,0,2.786,27.25H23.214A2.734,2.734,0,0,0,26,24.571V4.929A2.734,2.734,0,0,0,23.214,2.25ZM12.994,23.522a9.487,9.487,0,0,1-4.4-1.077L3.714,23.679,5.02,19.092a8.558,8.558,0,0,1-1.23-4.425,9.046,9.046,0,0,1,9.2-8.845,9.332,9.332,0,0,1,6.512,2.595,8.729,8.729,0,0,1,2.78,6.261A9.119,9.119,0,0,1,12.994,23.522Z" transform="translate(0 -2.25)" fill="#5cbd54"/>
</svg>
