<svg xmlns="http://www.w3.org/2000/svg" width="32.254" height="29" viewBox="0 0 32.254 29">
  <path id="Icon_awesome-shopping-cart" data-name="Icon awesome-shopping-cart" d="M29.573,17.067,32.22,5.286a1.356,1.356,0,0,0-1.31-1.661H8.915L8.4,1.087A1.348,1.348,0,0,0,7.085,0H1.344A1.352,1.352,0,0,0,0,1.359v.906A1.352,1.352,0,0,0,1.344,3.625H5.257L9.191,23.077a3.14,3.14,0,1,0,3.754.485H24.684a3.131,3.131,0,1,0,3.561-.589l.309-1.375a1.356,1.356,0,0,0-1.31-1.661H12.214l-.366-1.812H28.262A1.347,1.347,0,0,0,29.573,17.067Z" fill="#1b285c"/>
</svg>
