<svg xmlns="http://www.w3.org/2000/svg" width="28.868" height="25.564" viewBox="0 0 28.868 25.564">
  <path id="Icon_awesome-share-square" data-name="Icon awesome-share-square" d="M28.491,8.86l-7.217,6.79a1.2,1.2,0,0,1-2.029-.871V11.186c-7.246.048-10.3,1.753-8.258,8.556a.8.8,0,0,1-1.253.865,9.6,9.6,0,0,1-3.72-7.158c0-7.187,5.894-8.613,13.231-8.654V1.2A1.2,1.2,0,0,1,21.274.328l7.217,6.79A1.2,1.2,0,0,1,28.491,8.86ZM19.245,18.93v3.439H3.208V6.391H5.759a.6.6,0,0,0,.433-.184A9.768,9.768,0,0,1,8.749,4.326.6.6,0,0,0,8.472,3.2H2.406A2.4,2.4,0,0,0,0,5.592V23.168a2.4,2.4,0,0,0,2.406,2.4H20.047a2.4,2.4,0,0,0,2.406-2.4V18.734a.6.6,0,0,0-.8-.564,3.613,3.613,0,0,1-1.713.169A.6.6,0,0,0,19.245,18.93Z" fill="#ae824b"/>
</svg>
