<svg xmlns="http://www.w3.org/2000/svg" width="26.298" height="25.064" viewBox="0 0 26.298 25.064">
  <path id="Icon_awesome-share-alt-square" data-name="Icon awesome-share-alt-square" d="M26.3,4.935V24.629a2.754,2.754,0,0,1-2.818,2.685H2.818A2.754,2.754,0,0,1,0,24.629V4.935A2.754,2.754,0,0,1,2.818,2.25H23.481A2.754,2.754,0,0,1,26.3,4.935ZM17.845,17.02a3.366,3.366,0,0,0-2.218.821L11.638,15.56a3.009,3.009,0,0,0,0-1.555l3.989-2.281a3.366,3.366,0,0,0,2.218.821,3.213,3.213,0,0,0,3.287-3.133,3.291,3.291,0,0,0-6.575,0,3,3,0,0,0,.1.777L10.671,12.47a3.366,3.366,0,0,0-2.218-.821,3.213,3.213,0,0,0-3.287,3.133,3.213,3.213,0,0,0,3.287,3.133,3.366,3.366,0,0,0,2.218-.821l3.989,2.281a3,3,0,0,0-.1.778,3.291,3.291,0,1,0,3.287-3.133Z" transform="translate(0 -2.25)" fill="#ae824b"/>
</svg>
