<svg xmlns="http://www.w3.org/2000/svg" width="41.942" height="32.108" viewBox="0 0 41.942 32.108">
  <path id="Icon_awesome-people-carry" data-name="Icon awesome-people-carry" d="M8.388,6.02a3.081,3.081,0,0,0,3.145-3.01A3.081,3.081,0,0,0,8.388,0,3.081,3.081,0,0,0,5.242,3.01,3.081,3.081,0,0,0,8.388,6.02Zm25.164,0A3.081,3.081,0,0,0,36.7,3.01a3.149,3.149,0,0,0-6.291,0A3.081,3.081,0,0,0,33.552,6.02Zm8.237,23.334-2.883-6.9-2.693,2.91-.131,1.141,1.815,4.34a2.143,2.143,0,0,0,2.726,1.116A1.978,1.978,0,0,0,41.789,29.355ZM39.548,16.2l-1.212-5.029a4.114,4.114,0,0,0-2.457-2.816A4.2,4.2,0,0,0,32.2,8.56a6.94,6.94,0,0,0-3.152,3.725l-.74,2.126-1.048.64V9.03a1.03,1.03,0,0,0-1.048-1H15.727a1.03,1.03,0,0,0-1.048,1v6.02l-1.055-.64-.74-2.126A6.891,6.891,0,0,0,9.731,8.56a4.205,4.205,0,0,0-3.676-.207A4.114,4.114,0,0,0,3.6,11.169L2.392,16.2a3.894,3.894,0,0,0,.944,3.556l4.4,4.76L8.4,30.32a2.067,2.067,0,0,0,2.084,1.787c.079,0,.151-.006.229-.013a2.027,2.027,0,0,0,1.855-2.214l-.662-5.82a3.929,3.929,0,0,0-1.022-2.195L8.047,18.794,9.2,14.386l.446,1.279a4.076,4.076,0,0,0,1.606,2.044L14.6,19.747a2.885,2.885,0,0,0,1.127.314H26.212a2.885,2.885,0,0,0,1.127-.314l3.349-2.038a4.05,4.05,0,0,0,1.606-2.044l.446-1.279,1.153,4.409-2.837,3.073a3.929,3.929,0,0,0-1.022,2.195l-.662,5.82A2.031,2.031,0,0,0,31.225,32.1c.079.006.151.013.229.013a2.067,2.067,0,0,0,2.084-1.787l.662-5.807,4.4-4.76a3.912,3.912,0,0,0,.944-3.556ZM3.034,22.457l-2.883,6.9a1.978,1.978,0,0,0,1.166,2.609,2.133,2.133,0,0,0,2.726-1.116l1.815-4.34-.131-1.141-2.693-2.91Z" transform="translate(0.001)" fill="#1b285c"/>
</svg>
