<svg xmlns="http://www.w3.org/2000/svg" width="13.553" height="13.564" viewBox="0 0 13.553 13.564">
  <path id="Icon_ionic-logo-whatsapp" data-name="Icon ionic-logo-whatsapp" d="M9.149,2.25A6.631,6.631,0,0,0,2.5,8.857a6.543,6.543,0,0,0,.955,3.412l-1.2,3.545,3.684-1.171A6.622,6.622,0,1,0,9.149,2.25Zm3.308,9.117a1.718,1.718,0,0,1-1.177.759c-.312.017-.321.242-2.022-.5a6.945,6.945,0,0,1-2.8-2.654A3.267,3.267,0,0,1,5.826,7.2,1.887,1.887,0,0,1,6.474,5.82a.651.651,0,0,1,.461-.194c.134,0,.221,0,.32,0s.248-.021.377.322.437,1.185.476,1.271a.309.309,0,0,1,0,.3,1.157,1.157,0,0,1-.18.275c-.089.1-.187.213-.266.286s-.181.169-.088.341a5.1,5.1,0,0,0,.9,1.2,4.642,4.642,0,0,0,1.334.888c.167.091.266.081.37-.028s.443-.477.563-.641.232-.132.385-.071.973.5,1.14.592.278.137.318.209A1.4,1.4,0,0,1,12.458,11.367Z" transform="translate(-2.25 -2.25)" fill="#094b0c"/>
</svg>
