<svg xmlns="http://www.w3.org/2000/svg" xmlns:xlink="http://www.w3.org/1999/xlink" width="350.294" height="234.792" viewBox="0 0 350.294 234.792">
  <defs>
    <clipPath id="clip-path">
      <path id="path772" d="M418.044-291.127l-35.515-20.5,1.367-.792,35.515,20.5-1.367.793"/>
    </clipPath>
    <radialGradient id="radial-gradient" cx="2.413" cy="11.006" r="17.063" gradientTransform="translate(-4.382 7.323) scale(0.577 1)" gradientUnits="objectBoundingBox">
      <stop offset="0" stop-color="#4e98b9"/>
      <stop offset="1" stop-color="#3c88af"/>
    </radialGradient>
    <clipPath id="clip-path-2">
      <path id="path804" d="M344.734-248.523l-35.515-20.5,1.367-.8L346.1-249.317l-1.367.793"/>
    </clipPath>
    <radialGradient id="radial-gradient-2" cx="4.401" cy="9.004" r="17.061" gradientTransform="translate(-3.542 7.322) scale(0.577 1)" xlink:href="#radial-gradient"/>
    <clipPath id="clip-path-3">
      <path id="path820" d="M308.086-227.226l-35.513-20.5,1.364-.795,35.516,20.5-1.367.795"/>
    </clipPath>
    <radialGradient id="radial-gradient-3" cx="5.395" cy="8.005" r="17.062" gradientTransform="translate(-3.122 7.322) scale(0.577 1)" xlink:href="#radial-gradient"/>
    <clipPath id="clip-path-4">
      <path id="path1540" d="M345.212-163.317l-35.525-20.511,1.364-.795,35.528,20.511h0l-1.367.795"/>
    </clipPath>
    <radialGradient id="radial-gradient-4" cx="4.387" cy="5.003" r="17.055" gradientTransform="translate(-3.546 7.32) scale(0.578 1)" xlink:href="#radial-gradient"/>
    <clipPath id="clip-path-5">
      <path id="path1556" d="M308.565-142.021,273.037-162.53l1.367-.795,35.527,20.513h0l-1.365.791"/>
    </clipPath>
    <radialGradient id="radial-gradient-5" cx="5.38" cy="4.003" r="17.056" gradientTransform="translate(-3.126 7.32) scale(0.577 1)" xlink:href="#radial-gradient"/>
    <clipPath id="clip-path-6">
      <path id="path1908" d="M307.834-269.827h0l-35.515-20.5,1.367-.792,35.513,20.5-1.364.795"/>
    </clipPath>
    <radialGradient id="radial-gradient-6" cx="5.402" cy="10.005" r="17.062" gradientTransform="translate(-3.119 7.322) scale(0.577 1)" xlink:href="#radial-gradient"/>
    <clipPath id="clip-path-7">
      <path id="path2260" d="M418.523-205.919h0L383-226.431l1.365-.795,35.528,20.511-1.367.8"/>
    </clipPath>
    <radialGradient id="radial-gradient-7" cx="2.4" cy="7.002" r="17.054" gradientTransform="translate(-4.385 7.319) scale(0.578 1)" xlink:href="#radial-gradient"/>
    <clipPath id="clip-path-8">
      <path id="path2388" d="M381.875-184.622h0l-35.525-20.513,1.365-.791,35.528,20.509-1.367.795"/>
    </clipPath>
    <radialGradient id="radial-gradient-8" cx="3.393" cy="6.003" r="17.056" gradientTransform="translate(-3.966 7.32) scale(0.577 1)" xlink:href="#radial-gradient"/>
    <clipPath id="clip-path-9">
      <path id="path2500" d="M418.763-163.325l-35.513-20.5,1.365-.795,35.516,20.5-1.368.795"/>
    </clipPath>
    <radialGradient id="radial-gradient-9" cx="2.394" cy="5.005" r="17.062" gradientTransform="translate(-4.39 7.322) scale(0.577 1)" xlink:href="#radial-gradient"/>
    <clipPath id="clip-path-10">
      <path id="path2612" d="M382.1-142.021l-35.515-20.5,1.367-.793,35.513,20.505-1.365.791"/>
    </clipPath>
    <radialGradient id="radial-gradient-10" cx="3.388" cy="4.004" r="17.063" gradientTransform="translate(-3.97 7.323) scale(0.577 1)" xlink:href="#radial-gradient"/>
    <clipPath id="clip-path-11">
      <path id="path2724" d="M345.452-120.721l-35.515-20.5,1.367-.8,35.515,20.505-1.367.795"/>
    </clipPath>
    <radialGradient id="radial-gradient-11" cx="4.381" cy="3.004" r="17.06" gradientTransform="translate(-3.55 7.321) scale(0.578 1)" xlink:href="#radial-gradient"/>
  </defs>
  <g id="Group_3267" data-name="Group 3267" transform="translate(-41.706 -200.208)">
    <g id="Group_96" data-name="Group 96" transform="translate(2164.488 -812.646)">
      <g id="g768" transform="translate(-2309 1345.999)">
        <g id="g770" clip-path="url(#clip-path)">
          <path id="path782" d="M418.044-291.127l-35.515-20.5,1.367-.792,35.515,20.5-1.367.793" fill="url(#radial-gradient)"/>
        </g>
      </g>
      <g id="g800" transform="translate(-2309 1345.999)">
        <g id="g802" clip-path="url(#clip-path-2)">
          <path id="path814" d="M344.734-248.523l-35.515-20.5,1.367-.8L346.1-249.317l-1.367.793" fill="url(#radial-gradient-2)"/>
        </g>
      </g>
      <g id="g816" transform="translate(-2309 1345.999)">
        <g id="g818" clip-path="url(#clip-path-3)">
          <path id="path830" d="M308.086-227.226l-35.513-20.5,1.364-.795,35.516,20.5-1.367.795" fill="url(#radial-gradient-3)"/>
        </g>
      </g>
      <g id="g1536" transform="translate(-2309 1345.999)">
        <g id="g1538" clip-path="url(#clip-path-4)">
          <path id="path1550" d="M345.212-163.317l-35.525-20.511,1.364-.795,35.528,20.511h0l-1.367.795" fill="url(#radial-gradient-4)"/>
        </g>
      </g>
      <g id="g1552" transform="translate(-2309 1345.999)">
        <g id="g1554" clip-path="url(#clip-path-5)">
          <path id="path1566" d="M308.565-142.021,273.037-162.53l1.367-.795,35.527,20.513h0l-1.365.791" fill="url(#radial-gradient-5)"/>
        </g>
      </g>
      <g id="g1904" transform="translate(-2309 1345.999)">
        <g id="g1906" clip-path="url(#clip-path-6)">
          <path id="path1918" d="M307.834-269.827h0l-35.515-20.5,1.367-.792,35.513,20.5-1.364.795" fill="url(#radial-gradient-6)"/>
        </g>
      </g>
      <g id="g2256" transform="translate(-2309 1345.999)">
        <g id="g2258" clip-path="url(#clip-path-7)">
          <path id="path2270" d="M418.523-205.919h0L383-226.431l1.365-.795,35.528,20.511-1.367.8" fill="url(#radial-gradient-7)"/>
        </g>
      </g>
      <g id="g2384" transform="translate(-2309 1345.999)">
        <g id="g2386" clip-path="url(#clip-path-8)">
          <path id="path2398" d="M381.875-184.622h0l-35.525-20.513,1.365-.791,35.528,20.509-1.367.795" fill="url(#radial-gradient-8)"/>
        </g>
      </g>
      <g id="g2496" transform="translate(-2309 1345.999)">
        <g id="g2498" clip-path="url(#clip-path-9)">
          <path id="path2510" d="M418.763-163.325l-35.513-20.5,1.365-.795,35.516,20.5-1.368.795" fill="url(#radial-gradient-9)"/>
        </g>
      </g>
      <g id="g2608" transform="translate(-2309 1345.999)">
        <g id="g2610" clip-path="url(#clip-path-10)">
          <path id="path2622" d="M382.1-142.021l-35.515-20.5,1.367-.793,35.513,20.505-1.365.791" fill="url(#radial-gradient-10)"/>
        </g>
      </g>
      <g id="g2720" transform="translate(-2309 1345.999)">
        <g id="g2722" clip-path="url(#clip-path-11)">
          <path id="path2734" d="M345.452-120.721l-35.515-20.5,1.367-.8,35.515,20.505-1.367.795" fill="url(#radial-gradient-11)"/>
        </g>
      </g>
      <path id="path3264" d="M347.035-226.847l-.015,5.379-7.995,4.645.016-5.379,7.993-4.645" transform="translate(-2309 1345.999)" fill="#8d8d8d"/>
      <path id="path3266" d="M331.11-217.593l-.015,5.379-8.016,4.659.016-5.379,8.015-4.659" transform="translate(-2309 1345.999)" fill="#8d8d8d"/>
      <path id="path3268" d="M314.347-207.85l-.016,5.379-8.015,4.657.015-5.379,8.016-4.657" transform="translate(-2309 1345.999)" fill="#8d8d8d"/>
      <path id="path3270" d="M298.4-198.584l-.016,5.379-7.995,4.647.016-5.38,7.995-4.645" transform="translate(-2309 1345.999)" fill="#8d8d8d"/>
      <path id="path3272" d="M449.868-209.324l-.015,5.38L422.04-187.781l.015-5.379,27.813-16.164" transform="translate(-2309 1345.999)" fill="#8d8d8d"/>
      <path id="path3274" d="M406.711-192.394l-.015,5.38L347.02-221.469l.015-5.379,59.676,34.453" transform="translate(-2309 1345.999)" fill="#8d8d8d"/>
      <path id="path3276" d="M406.711-192.394l-.015,5.379-7.995,4.647.016-5.379,7.993-4.647" transform="translate(-2309 1345.999)" fill="#6a6b6f"/>
      <path id="path3278" d="M398.718-187.748l-.016,5.379-59.676-34.455.016-5.379,59.676,34.455" transform="translate(-2309 1345.999)" fill="#6b6c6f"/>
      <path id="path3280" d="M406.711-192.394l-7.993,4.647L339.042-222.2l7.993-4.645,59.676,34.453" transform="translate(-2309 1345.999)" fill="#c7c6c7"/>
      <path id="path3282" d="M282.474-189.329l-.015,5.38-8.016,4.657.016-5.379,8.015-4.659" transform="translate(-2309 1345.999)" fill="#8d8d8d"/>
      <path id="path3284" d="M449.868-209.324l.161,32.315L422.055-193.16Z" transform="translate(-2309 1345.999)" fill="#d5dfe9"/>
      <path id="path3286" d="M450.03-177.009l-.016,5.379L422.04-187.781l.015-5.379,27.975,16.151" transform="translate(-2309 1345.999)" fill="#6b6c6f"/>
      <path id="path3288" d="M419.391-166.624l-.015,5.38L331.1-212.214l.015-5.379,88.281,50.969" transform="translate(-2309 1345.999)" fill="#8d8d8d"/>
      <path id="path3290" d="M411.376-161.965l-.016,5.379-88.281-50.969.016-5.379,88.281,50.969" transform="translate(-2309 1345.999)" fill="#6b6c6f"/>
      <path id="path3292" d="M419.391-166.624l-.015,5.379-8.016,4.659.016-5.379,8.015-4.659" transform="translate(-2309 1345.999)" fill="#6a6b6f"/>
      <path id="path3294" d="M402.628-156.881l-.015,5.379-88.282-50.969.016-5.379,88.281,50.969" transform="translate(-2309 1345.999)" fill="#8d8d8d"/>
      <path id="path3296" d="M394.612-152.224l-.015,5.379-88.281-50.969.015-5.379,88.281,50.969" transform="translate(-2309 1345.999)" fill="#6b6c6f"/>
      <path id="path3298" d="M402.628-156.881l-.016,5.379-8.015,4.657.015-5.379,8.016-4.657" transform="translate(-2309 1345.999)" fill="#6a6b6f"/>
      <path id="path3300" d="M402.628-156.881l-8.016,4.657-88.281-50.969,8.016-4.659,88.281,50.971" transform="translate(-2309 1345.999)" fill="#c7c6c7"/>
      <path id="path3302" d="M386.682-147.614l-.016,5.379L298.385-193.2l.016-5.379,88.281,50.969" transform="translate(-2309 1345.999)" fill="#8d8d8d"/>
      <path id="path3304" d="M378.687-142.969l-.015,5.38L290.39-188.56l.016-5.379,88.281,50.969" transform="translate(-2309 1345.999)" fill="#6b6c6f"/>
      <path id="path3306" d="M386.682-147.614l-.016,5.379-7.993,4.647.015-5.38,7.995-4.645" transform="translate(-2309 1345.999)" fill="#6a6b6f"/>
      <path id="path3308" d="M370.755-138.36l-.015,5.38-88.281-50.969.015-5.38,88.281,50.969" transform="translate(-2309 1345.999)" fill="#8d8d8d"/>
      <path id="path3310" d="M370.755-138.36l-.015,5.38-8.016,4.657.016-5.378,8.015-4.659" transform="translate(-2309 1345.999)" fill="#6a6b6f"/>
      <path id="path3312" d="M362.74-133.7l-.016,5.378-88.281-50.969.016-5.379L362.74-133.7" transform="translate(-2309 1345.999)" fill="#6b6c6f"/>
      <path id="path3314" d="M347.035-226.847l-7.993,4.645,59.676,34.455,7.993-4.647Zm31.652,83.878,7.995-4.645L298.4-198.584l-7.995,4.645Zm32.689-19,8.015-4.659L331.11-217.593l-8.015,4.659ZM362.74-133.7l8.015-4.659-88.281-50.969-8.015,4.659Zm31.872-18.523,8.016-4.657L314.347-207.85l-8.016,4.657Zm27.443-40.936,27.975,16.151L343.842-115.3,242.733-173.676l134-77.873,73.136,42.225L422.055-193.16" transform="translate(-2309 1345.999)" fill="#fff"/>
      <path id="path3316" d="M419.391-166.624l-8.015,4.659L323.1-212.934l8.015-4.659,88.281,50.969" transform="translate(-2309 1345.999)" fill="#c7c6c7"/>
      <path id="path3318" d="M386.682-147.614l-7.995,4.645-88.281-50.969,7.995-4.645,88.281,50.969" transform="translate(-2309 1345.999)" fill="#c7c6c7"/>
      <path id="path3320" d="M370.755-138.36,362.74-133.7,274.459-184.67l8.015-4.659,88.281,50.969" transform="translate(-2309 1345.999)" fill="#c7c6c7"/>
      <path id="path3322" d="M450.03-177.009l-.016,5.379L343.827-109.921l.015-5.38L450.03-177.009" transform="translate(-2309 1345.999)" fill="#a9becd"/>
      <path id="path3324" d="M343.842-115.3l-.015,5.38L242.718-168.3l.015-5.379L343.842-115.3" transform="translate(-2309 1345.999)" fill="#a9becd"/>
      <path id="path3346" d="M430.319-229.978l-.4,25.876L409.6-192.662l.4-25.876,20.317-11.44" transform="translate(-2309 1345.999)" fill="#ddae62"/>
      <path id="path3348" d="M410-218.538l-.4,25.876-20.435-12.187.4-25.876L410-218.538" transform="translate(-2309 1345.999)" fill="#b78040"/>
      <path id="path3350" d="M430.319-229.978,410-218.538l-20.435-12.187,20.319-11.44,20.433,12.187" transform="translate(-2309 1345.999)" fill="#eeca7d"/>
      <path id="path3352" d="M401.98-237.714l-4.2,2.368,20.433,12.187,4.2-2.368L401.98-237.714" transform="translate(-2309 1345.999)" fill="#f9ecec"/>
      <path id="path3354" d="M418.218-223.161l4.2-2.367-.057,4.211-4.2,2.347.057-4.191" transform="translate(-2309 1345.999)" fill="#bfa695"/>
      <path id="path3552" d="M338.081-310.007l.041,14.889,17.031,9.9-.043-14.889-17.029-9.9" transform="translate(-2309 1345.999)" fill="#b78040"/>
      <path id="path3554" d="M355.11-300.111l.043,14.889,24.867-14.357-.041-14.889L355.11-300.111" transform="translate(-2309 1345.999)" fill="#ddae62"/>
      <path id="path3556" d="M338.081-310.007l17.029,9.9,24.868-14.357-17.029-9.9-24.868,14.359" transform="translate(-2309 1345.999)" fill="#eeca7d"/>
      <path id="path3558" d="M369.574-320.515l3.524,2.048L348.23-304.109l-3.524-2.048,24.868-14.359" transform="translate(-2309 1345.999)" fill="#f9ecec"/>
      <path id="path3560" d="M348.223-304.11l-3.517-2.047v3.556l3.517,2.031v-3.54" transform="translate(-2309 1345.999)" fill="#bfa695"/>
      <path id="path3562" d="M339.892-295.979v.349l2.66,1.536v-.349l-2.66-1.536" transform="translate(-2309 1345.999)" fill="#563920"/>
      <path id="path3564" d="M340.406-295.883l.3.173v-1.873l.3.172-.448-1.035-.448.517.3.172v1.873" transform="translate(-2309 1345.999)" fill="#563920"/>
      <path id="path3566" d="M341.74-295.113l.3.172v-1.872l.3.172-.448-1.035-.448.517.3.172v1.873" transform="translate(-2309 1345.999)" fill="#563920"/>
      <path id="path3568" d="M339.916-299.251c-.4-.232-.729-.093-.729.309v2.611a1.517,1.517,0,0,0,.729,1.152l2.612,1.508c.4.232.729.093.729-.309v-2.611a1.515,1.515,0,0,0-.729-1.152Zm2.612,5.763L339.916-295a1.9,1.9,0,0,1-.913-1.44v-2.612c0-.5.409-.677.913-.387l2.612,1.508a1.9,1.9,0,0,1,.913,1.441v2.612c0,.5-.409.676-.913.385" transform="translate(-2309 1345.999)" fill="#563920"/>
      <path id="path3570" d="M348.044-292.682l-.015-.021a1.447,1.447,0,0,0-.545-.436c-.321-.185-.545-.252-.545-.195l-.015.005-.015-.021c0-.052-.183-.215-.455-.383v1.443l-.007.171c-.032.175-.189.2-.381.091a.793.793,0,0,1-.385-.595l.087-.044.085.143.213.309c.231.133.208-.148.208-.148v-1.472c-.273-.148-.456-.2-.456-.145l-.015.005L345.79-294a1.424,1.424,0,0,0-.545-.435c-.321-.187-.545-.252-.545-.195l-.015,0-.015-.021c.025-.648.723-.9,1.569-.476l.125-.009.125.153a3.539,3.539,0,0,1,1.569,2.288l-.015.005" transform="translate(-2309 1345.999)" fill="#563920"/>
      <path id="path3572" d="M345.059-296.282c-.4-.232-.731-.095-.731.308v2.612a1.514,1.514,0,0,0,.731,1.151l2.611,1.508c.4.232.731.093.731-.308v-2.612a1.514,1.514,0,0,0-.731-1.151Zm2.611,5.763-2.611-1.508a1.9,1.9,0,0,1-.913-1.441v-2.612c0-.5.409-.676.913-.385l2.611,1.508a1.9,1.9,0,0,1,.915,1.44v2.612c0,.5-.411.677-.915.387" transform="translate(-2309 1345.999)" fill="#563920"/>
      <path id="path3574" d="M352.2-290.767c-.011.407-.285.583-.635.413v1.289l.449.259v.167L351-289.222v-.167l.451.259v-1.288a1.551,1.551,0,0,1-.635-1.147v-.952l1.38.8v.953" transform="translate(-2309 1345.999)" fill="#563920"/>
      <path id="path3576" d="M350.2-293.314c-.4-.232-.729-.093-.729.309v2.611a1.517,1.517,0,0,0,.729,1.152l2.612,1.508c.4.232.729.093.729-.309v-2.612a1.515,1.515,0,0,0-.729-1.151Zm2.612,5.763-2.612-1.508a1.9,1.9,0,0,1-.913-1.44v-2.612c0-.5.409-.677.913-.385l2.612,1.507a1.9,1.9,0,0,1,.913,1.441v2.612c0,.5-.409.676-.913.385" transform="translate(-2309 1345.999)" fill="#563920"/>
      <path id="path3578" d="M360.763-295.577l.041,14.889,17.029,9.9-.041-14.889-17.029-9.9" transform="translate(-2309 1345.999)" fill="#b78040"/>
      <path id="path3580" d="M377.792-285.679l.041,14.889L402.7-285.147l-.043-14.891-24.867,14.359" transform="translate(-2309 1345.999)" fill="#ddae62"/>
      <path id="path3582" d="M360.763-295.577l17.029,9.9,24.867-14.359-17.029-9.9-24.867,14.357" transform="translate(-2309 1345.999)" fill="#eeca7d"/>
      <path id="path3584" d="M392.256-306.083l3.524,2.048-24.868,14.357-3.524-2.048,24.868-14.357" transform="translate(-2309 1345.999)" fill="#f9ecec"/>
      <path id="path3586" d="M370.9-289.678l-3.516-2.048v3.557l3.516,2.029v-3.539" transform="translate(-2309 1345.999)" fill="#bfa695"/>
      <path id="path3588" d="M362.575-281.547v.349l2.66,1.535v-.348l-2.66-1.536" transform="translate(-2309 1345.999)" fill="#563920"/>
      <path id="path3590" d="M363.087-281.453l.3.173v-1.873l.3.173-.448-1.036-.449.517.3.173v1.872" transform="translate(-2309 1345.999)" fill="#563920"/>
      <path id="path3592" d="M364.422-280.682l.3.173v-1.873l.3.173-.448-1.036-.448.519.3.172v1.872" transform="translate(-2309 1345.999)" fill="#563920"/>
      <path id="path3594" d="M362.6-284.819c-.4-.232-.731-.095-.731.308v2.612a1.514,1.514,0,0,0,.731,1.151l2.612,1.508c.4.232.729.095.729-.308v-2.612a1.513,1.513,0,0,0-.729-1.151Zm2.612,5.763-2.612-1.508a1.9,1.9,0,0,1-.913-1.441v-2.611c0-.5.409-.677.913-.387l2.612,1.508a1.9,1.9,0,0,1,.913,1.441v2.611c0,.5-.411.677-.913.387" transform="translate(-2309 1345.999)" fill="#563920"/>
      <path id="path3596" d="M370.727-278.25l-.015-.023a1.434,1.434,0,0,0-.547-.435c-.32-.185-.545-.252-.545-.195l-.013.005-.015-.021c0-.053-.184-.215-.456-.383v1.441l-.005.171c-.032.176-.189.2-.381.091a.793.793,0,0,1-.387-.595l.087-.043.087.143.213.309c.229.133.208-.148.208-.148V-279.4c-.273-.147-.457-.2-.457-.144l-.013.005-.015-.021a1.421,1.421,0,0,0-.545-.436c-.323-.185-.545-.252-.545-.195l-.015.005-.015-.023c.025-.647.723-.9,1.569-.475l.124-.009.125.153a3.537,3.537,0,0,1,1.571,2.288l-.015.005" transform="translate(-2309 1345.999)" fill="#563920"/>
      <path id="path3598" d="M367.74-281.851c-.4-.232-.729-.093-.729.309v2.611a1.515,1.515,0,0,0,.729,1.152l2.612,1.508c.4.232.729.093.729-.309v-2.611a1.515,1.515,0,0,0-.729-1.152Zm2.612,5.763L367.74-277.6a1.9,1.9,0,0,1-.913-1.441v-2.612c0-.5.409-.677.913-.385l2.612,1.507a1.9,1.9,0,0,1,.913,1.441v2.612c0,.5-.409.676-.913.385" transform="translate(-2309 1345.999)" fill="#563920"/>
      <path id="path3600" d="M374.879-276.335c-.011.407-.287.583-.635.412v1.289l.448.26v.167l-1.009-.583v-.168l.449.26v-1.289a1.557,1.557,0,0,1-.635-1.145v-.953l1.381.8v.953" transform="translate(-2309 1345.999)" fill="#563920"/>
      <path id="path3602" d="M372.883-278.882c-.4-.233-.731-.095-.731.308v2.612a1.514,1.514,0,0,0,.731,1.151l2.611,1.508c.4.233.731.095.731-.308v-2.612a1.514,1.514,0,0,0-.731-1.151Zm2.611,5.763-2.611-1.508a1.9,1.9,0,0,1-.913-1.441v-2.611c0-.5.409-.677.913-.387l2.611,1.508a1.9,1.9,0,0,1,.915,1.441v2.611c0,.5-.411.677-.915.387" transform="translate(-2309 1345.999)" fill="#563920"/>
      <path id="path3604" d="M383.566-281.315l.043,14.889,17.029,9.9-.043-14.889-17.029-9.9" transform="translate(-2309 1345.999)" fill="#b78040"/>
      <path id="path3606" d="M400.6-271.419l.043,14.889,24.868-14.357-.043-14.889L400.6-271.419" transform="translate(-2309 1345.999)" fill="#ddae62"/>
      <path id="path3608" d="M383.566-281.315l17.029,9.9,24.868-14.357-17.029-9.9-24.868,14.357" transform="translate(-2309 1345.999)" fill="#eeca7d"/>
      <path id="path3610" d="M415.06-291.822l3.524,2.047-24.868,14.359-3.524-2.048,24.868-14.357" transform="translate(-2309 1345.999)" fill="#f9ecec"/>
      <path id="path3612" d="M393.71-275.418l-3.517-2.047v3.556l3.517,2.031v-3.54" transform="translate(-2309 1345.999)" fill="#bfa695"/>
      <path id="path3614" d="M385.379-267.287v.349l2.66,1.536v-.349l-2.66-1.536" transform="translate(-2309 1345.999)" fill="#563920"/>
      <path id="path3616" d="M385.891-267.191l.3.172v-1.872l.3.172-.448-1.035-.449.517.3.172v1.873" transform="translate(-2309 1345.999)" fill="#563920"/>
      <path id="path3618" d="M387.226-266.421l.3.173v-1.873l.3.172-.448-1.035-.449.517.3.172v1.873" transform="translate(-2309 1345.999)" fill="#563920"/>
      <path id="path3620" d="M385.4-270.559c-.4-.232-.731-.093-.731.309v2.611a1.519,1.519,0,0,0,.731,1.152l2.612,1.508c.4.232.729.093.729-.309V-267.9a1.518,1.518,0,0,0-.729-1.151Zm2.612,5.763L385.4-266.3a1.9,1.9,0,0,1-.913-1.441v-2.612c0-.5.409-.677.913-.387l2.612,1.508a1.9,1.9,0,0,1,.913,1.441v2.612c0,.5-.411.676-.913.385" transform="translate(-2309 1345.999)" fill="#563920"/>
      <path id="path3622" d="M393.531-263.99l-.015-.021a1.445,1.445,0,0,0-.547-.436c-.321-.185-.545-.252-.545-.195l-.013.005-.015-.021c0-.052-.184-.215-.456-.383v1.443l-.005.171c-.032.176-.189.2-.381.091a.793.793,0,0,1-.387-.595l.087-.044.087.144.213.308c.229.133.208-.148.208-.148v-1.472c-.273-.148-.456-.2-.456-.145l-.015.005-.015-.021a1.437,1.437,0,0,0-.545-.435c-.323-.187-.545-.252-.545-.195l-.016,0-.015-.021c.027-.648.723-.9,1.571-.476l.124-.009.125.155a3.531,3.531,0,0,1,1.571,2.288l-.015,0" transform="translate(-2309 1345.999)" fill="#563920"/>
      <path id="path3624" d="M390.544-267.59c-.4-.233-.729-.095-.729.308v2.612a1.515,1.515,0,0,0,.729,1.151l2.612,1.508c.4.232.729.095.729-.308v-2.612a1.513,1.513,0,0,0-.729-1.151Zm2.612,5.763-2.612-1.508a1.9,1.9,0,0,1-.913-1.441v-2.611c0-.5.409-.677.913-.387l2.612,1.508a1.9,1.9,0,0,1,.913,1.441v2.611c0,.5-.409.677-.913.387" transform="translate(-2309 1345.999)" fill="#563920"/>
      <path id="path3626" d="M397.683-262.075c-.011.407-.287.583-.636.413v1.289l.449.259v.167l-1.009-.583v-.167l.449.259v-1.288a1.553,1.553,0,0,1-.635-1.147v-.952l1.381.8v.952" transform="translate(-2309 1345.999)" fill="#563920"/>
      <path id="path3628" d="M395.687-264.622c-.4-.232-.731-.093-.731.308v2.612a1.517,1.517,0,0,0,.731,1.152l2.611,1.508c.4.232.731.093.731-.309v-2.611a1.517,1.517,0,0,0-.731-1.152Zm2.611,5.763-2.611-1.507a1.9,1.9,0,0,1-.913-1.441v-2.612c0-.5.409-.677.913-.387L398.3-263.3a1.9,1.9,0,0,1,.915,1.441v2.612c0,.5-.411.676-.915.385" transform="translate(-2309 1345.999)" fill="#563920"/>
      <path id="path3630" d="M406.248-266.885l.043,14.891,17.029,9.9-.043-14.889-17.029-9.9" transform="translate(-2309 1345.999)" fill="#b78040"/>
      <path id="path3632" d="M423.278-256.987l.043,14.889,24.868-14.357-.043-14.891-24.868,14.359" transform="translate(-2309 1345.999)" fill="#ddae62"/>
      <path id="path3634" d="M406.248-266.885l17.029,9.9,24.868-14.359-17.029-9.9-24.868,14.357" transform="translate(-2309 1345.999)" fill="#eeca7d"/>
      <path id="path3636" d="M437.742-277.391l3.524,2.048L416.4-260.986l-3.524-2.048,24.867-14.357" transform="translate(-2309 1345.999)" fill="#f9ecec"/>
      <path id="path3638" d="M416.391-260.986l-3.516-2.048v3.557l3.516,2.029v-3.539" transform="translate(-2309 1345.999)" fill="#bfa695"/>
      <path id="path3640" d="M408.06-252.855v.349l2.66,1.536v-.349l-2.66-1.536" transform="translate(-2309 1345.999)" fill="#563920"/>
      <path id="path3642" d="M408.574-252.761l.3.173v-1.873l.3.173-.448-1.036-.448.517.3.173v1.872" transform="translate(-2309 1345.999)" fill="#563920"/>
      <path id="path3644" d="M409.908-251.989l.3.172v-1.873l.3.173-.449-1.035-.448.516.3.173v1.873" transform="translate(-2309 1345.999)" fill="#563920"/>
      <path id="path3646" d="M408.084-256.127c-.4-.232-.729-.095-.729.308v2.612a1.516,1.516,0,0,0,.729,1.151l2.612,1.508c.4.233.731.095.731-.308v-2.612a1.514,1.514,0,0,0-.731-1.151Zm2.612,5.763-2.612-1.508a1.9,1.9,0,0,1-.913-1.441v-2.611c0-.5.411-.677.913-.387L410.7-254.8a1.9,1.9,0,0,1,.913,1.441v2.611c0,.5-.409.677-.913.387" transform="translate(-2309 1345.999)" fill="#563920"/>
      <path id="path3648" d="M416.212-249.558l-.015-.021a1.421,1.421,0,0,0-.545-.436c-.321-.185-.545-.252-.545-.195l-.015.005-.015-.023c0-.052-.183-.213-.455-.381v1.443l-.007.169c-.031.176-.189.2-.38.091a.793.793,0,0,1-.387-.593l.087-.044.087.143.213.309c.229.132.207-.148.207-.148v-1.473c-.273-.147-.456-.2-.456-.144l-.015.005-.015-.023a1.454,1.454,0,0,0-.544-.435c-.323-.185-.545-.252-.545-.195l-.016.005-.015-.023c.025-.647.723-.9,1.571-.475l.124-.009.125.153a3.534,3.534,0,0,1,1.569,2.288l-.015.005" transform="translate(-2309 1345.999)" fill="#563920"/>
      <path id="path3650" d="M413.227-253.159c-.4-.232-.729-.093-.729.309v2.611a1.515,1.515,0,0,0,.729,1.152l2.612,1.508c.4.232.729.093.729-.309V-250.5a1.521,1.521,0,0,0-.729-1.152Zm2.612,5.763-2.612-1.507a1.9,1.9,0,0,1-.913-1.441v-2.612c0-.5.409-.676.913-.385l2.612,1.508a1.9,1.9,0,0,1,.913,1.44v2.612c0,.5-.411.677-.913.385" transform="translate(-2309 1345.999)" fill="#563920"/>
      <path id="path3652" d="M420.364-247.643c-.011.407-.285.583-.635.412v1.289l.449.26v.167l-1.009-.583v-.167l.448.259V-247.3a1.551,1.551,0,0,1-.633-1.145v-.953l1.38.8v.953" transform="translate(-2309 1345.999)" fill="#563920"/>
      <path id="path3654" d="M418.368-250.19c-.4-.232-.729-.095-.729.308v2.612a1.513,1.513,0,0,0,.729,1.151l2.612,1.508c.4.232.729.095.729-.308v-2.612a1.513,1.513,0,0,0-.729-1.151Zm2.612,5.763-2.612-1.508a1.9,1.9,0,0,1-.913-1.441v-2.611c0-.5.409-.677.913-.387l2.612,1.508a1.9,1.9,0,0,1,.913,1.441v2.611c0,.5-.409.677-.913.387" transform="translate(-2309 1345.999)" fill="#563920"/>
      <path id="path3656" d="M350.3-318.787l.041,14.891,17.029,9.9-.041-14.889-17.029-9.9" transform="translate(-2309 1345.999)" fill="#b78040"/>
      <path id="path3658" d="M367.326-308.89,367.367-294l24.868-14.357-.041-14.891L367.326-308.89" transform="translate(-2309 1345.999)" fill="#ddae62"/>
      <path id="path3660" d="M350.3-318.787l17.029,9.9,24.868-14.359-17.029-9.9L350.3-318.787" transform="translate(-2309 1345.999)" fill="#eeca7d"/>
      <path id="path3662" d="M381.79-329.294l3.524,2.048-24.868,14.357-3.524-2.048,24.868-14.357" transform="translate(-2309 1345.999)" fill="#f9ecec"/>
      <path id="path3664" d="M360.439-312.889l-3.517-2.048v3.557l3.517,2.029v-3.539" transform="translate(-2309 1345.999)" fill="#bfa695"/>
      <path id="path3666" d="M352.108-304.758v.349l2.66,1.536v-.349l-2.66-1.536" transform="translate(-2309 1345.999)" fill="#563920"/>
      <path id="path3668" d="M352.622-304.663l.3.173v-1.873l.3.172-.448-1.035-.448.517.3.173v1.872" transform="translate(-2309 1345.999)" fill="#563920"/>
      <path id="path3670" d="M353.956-303.893l.3.173v-1.873l.3.173-.448-1.036-.448.517.3.173v1.872" transform="translate(-2309 1345.999)" fill="#563920"/>
      <path id="path3672" d="M352.132-308.03c-.4-.233-.729-.095-.729.308v2.612a1.513,1.513,0,0,0,.729,1.151l2.612,1.508c.4.232.729.095.729-.308v-2.612a1.513,1.513,0,0,0-.729-1.151Zm2.612,5.763-2.612-1.508a1.9,1.9,0,0,1-.913-1.44v-2.612c0-.5.409-.677.913-.387l2.612,1.508a1.9,1.9,0,0,1,.913,1.441v2.611c0,.5-.409.677-.913.387" transform="translate(-2309 1345.999)" fill="#563920"/>
      <path id="path3674" d="M360.26-301.461l-.015-.023a1.434,1.434,0,0,0-.547-.435c-.32-.185-.544-.252-.544-.195l-.015.005-.015-.021c0-.053-.183-.215-.455-.383v1.441l-.007.171c-.032.176-.189.2-.381.091a.791.791,0,0,1-.385-.595l.085-.043.087.143.213.309c.231.133.208-.148.208-.148v-1.473c-.273-.147-.456-.2-.456-.144l-.015.005-.015-.021c0-.059-.223-.249-.545-.436s-.545-.252-.545-.195l-.015.005-.015-.021c.025-.648.723-.9,1.569-.476l.125-.009.124.153a3.534,3.534,0,0,1,1.571,2.288l-.015.005" transform="translate(-2309 1345.999)" fill="#563920"/>
      <path id="path3676" d="M357.275-305.062c-.4-.232-.731-.093-.731.308v2.612a1.517,1.517,0,0,0,.731,1.152l2.611,1.508c.4.232.731.093.731-.309V-302.4a1.517,1.517,0,0,0-.731-1.152Zm2.611,5.763-2.611-1.507a1.9,1.9,0,0,1-.915-1.441v-2.612c0-.5.411-.677.915-.385l2.611,1.507a1.9,1.9,0,0,1,.913,1.441v2.612c0,.5-.409.677-.913.385" transform="translate(-2309 1345.999)" fill="#563920"/>
      <path id="path3678" d="M364.412-299.546c-.011.407-.285.583-.635.412v1.289l.448.26v.167L363.216-298v-.167l.449.259V-299.2a1.551,1.551,0,0,1-.633-1.145v-.953l1.38.8v.953" transform="translate(-2309 1345.999)" fill="#563920"/>
      <path id="path3680" d="M362.416-302.093c-.4-.232-.729-.095-.729.308v2.612a1.513,1.513,0,0,0,.729,1.151l2.612,1.508c.4.232.729.093.729-.308v-2.612a1.516,1.516,0,0,0-.729-1.151Zm2.612,5.763-2.612-1.508a1.9,1.9,0,0,1-.913-1.441v-2.612c0-.5.409-.676.913-.385l2.612,1.508a1.9,1.9,0,0,1,.913,1.44v2.612c0,.5-.411.677-.913.387" transform="translate(-2309 1345.999)" fill="#563920"/>
      <path id="path3682" d="M377.187-302.043l.043,14.889,17.029,9.9-.043-14.889-17.029-9.9" transform="translate(-2309 1345.999)" fill="#b78040"/>
      <path id="path3684" d="M394.216-292.147l.043,14.889,24.868-14.357-.043-14.889-24.868,14.357" transform="translate(-2309 1345.999)" fill="#ddae62"/>
      <path id="path3686" d="M377.187-302.043l17.029,9.9L419.084-306.5l-17.029-9.9-24.868,14.359" transform="translate(-2309 1345.999)" fill="#eeca7d"/>
      <path id="path3688" d="M408.682-312.551,412.2-310.5l-24.867,14.359-3.524-2.048,24.868-14.359" transform="translate(-2309 1345.999)" fill="#f9ecec"/>
      <path id="path3690" d="M387.33-296.146l-3.516-2.047v3.556l3.516,2.029v-3.539" transform="translate(-2309 1345.999)" fill="#bfa695"/>
      <path id="path3692" d="M379-288.015v.349l2.661,1.536v-.349L379-288.015" transform="translate(-2309 1345.999)" fill="#563920"/>
      <path id="path3694" d="M379.512-287.919l.3.172v-1.872l.3.172-.449-1.035-.448.517.3.172v1.873" transform="translate(-2309 1345.999)" fill="#563920"/>
      <path id="path3696" d="M380.847-287.149l.3.172v-1.872l.3.172L381-289.711l-.449.517.3.172v1.873" transform="translate(-2309 1345.999)" fill="#563920"/>
      <path id="path3698" d="M379.023-291.287c-.4-.232-.729-.093-.729.308v2.612a1.516,1.516,0,0,0,.729,1.151l2.612,1.509c.4.232.731.093.731-.309v-2.612a1.517,1.517,0,0,0-.731-1.151Zm2.612,5.763-2.612-1.508a1.9,1.9,0,0,1-.913-1.44v-2.612c0-.5.411-.677.913-.387l2.612,1.508a1.9,1.9,0,0,1,.913,1.441v2.612c0,.5-.409.676-.913.385" transform="translate(-2309 1345.999)" fill="#563920"/>
      <path id="path3700" d="M387.151-284.718l-.015-.021a1.422,1.422,0,0,0-.545-.436c-.321-.185-.545-.252-.545-.195l-.013.005-.016-.021c0-.052-.183-.215-.455-.383v1.443l-.007.169c-.031.176-.188.2-.38.091a.791.791,0,0,1-.387-.593l.087-.044.087.144.213.308c.229.133.207-.148.207-.148v-1.473c-.273-.147-.456-.2-.456-.144l-.015.005-.015-.021a1.426,1.426,0,0,0-.544-.435c-.323-.187-.545-.253-.545-.195l-.016,0-.015-.021c.025-.648.723-.9,1.571-.476l.124-.009.125.153a3.535,3.535,0,0,1,1.569,2.288l-.015.005" transform="translate(-2309 1345.999)" fill="#563920"/>
      <path id="path3702" d="M384.166-288.318c-.4-.233-.729-.095-.729.308v2.612a1.515,1.515,0,0,0,.729,1.151l2.612,1.508c.4.232.729.093.729-.309v-2.611a1.517,1.517,0,0,0-.729-1.152Zm2.612,5.763-2.612-1.508a1.9,1.9,0,0,1-.913-1.441v-2.612c0-.5.409-.676.913-.385l2.612,1.508a1.9,1.9,0,0,1,.913,1.44v2.612c0,.5-.411.677-.913.387" transform="translate(-2309 1345.999)" fill="#563920"/>
      <path id="path3704" d="M391.3-282.8c-.011.407-.287.583-.636.413v1.288l.449.26v.167l-1.009-.583v-.167l.449.259v-1.288a1.558,1.558,0,0,1-.635-1.147v-.953l1.381.8v.953" transform="translate(-2309 1345.999)" fill="#563920"/>
      <path id="path3706" d="M389.307-285.35c-.4-.232-.729-.093-.729.308v2.612a1.521,1.521,0,0,0,.729,1.152l2.612,1.507c.4.233.729.095.729-.308v-2.612a1.513,1.513,0,0,0-.729-1.151Zm2.612,5.763-2.612-1.508a1.9,1.9,0,0,1-.913-1.44v-2.612c0-.5.411-.677.913-.387l2.612,1.508a1.9,1.9,0,0,1,.913,1.441v2.612c0,.5-.409.676-.913.385" transform="translate(-2309 1345.999)" fill="#563920"/>
      <path id="path3708" d="M401.868-287.09l.043,14.889,17.029,9.9-.043-14.889-17.029-9.9" transform="translate(-2309 1345.999)" fill="#b78040"/>
      <path id="path3710" d="M418.9-277.194l.043,14.889,24.868-14.357-.043-14.889L418.9-277.194" transform="translate(-2309 1345.999)" fill="#ddae62"/>
      <path id="path3712" d="M401.868-287.09l17.029,9.9,24.868-14.357-17.029-9.9L401.868-287.09" transform="translate(-2309 1345.999)" fill="#eeca7d"/>
      <path id="path3714" d="M433.362-297.6l3.524,2.048-24.868,14.357-3.524-2.047L433.362-297.6" transform="translate(-2309 1345.999)" fill="#f9ecec"/>
      <path id="path3716" d="M412.011-281.193l-3.517-2.047v3.556l3.517,2.031v-3.54" transform="translate(-2309 1345.999)" fill="#bfa695"/>
      <path id="path3718" d="M403.68-273.062v.349l2.66,1.536v-.349l-2.66-1.536" transform="translate(-2309 1345.999)" fill="#563920"/>
      <path id="path3720" d="M404.194-272.966l.3.172v-1.872l.3.172-.448-1.035-.448.517.3.172v1.873" transform="translate(-2309 1345.999)" fill="#563920"/>
      <path id="path3722" d="M405.528-272.2l.3.172V-273.9l.3.172-.448-1.035-.448.517.3.172v1.873" transform="translate(-2309 1345.999)" fill="#563920"/>
      <path id="path3724" d="M403.7-276.334c-.4-.232-.729-.093-.729.308v2.612a1.517,1.517,0,0,0,.729,1.152l2.612,1.507c.4.233.729.095.729-.308v-2.612a1.515,1.515,0,0,0-.729-1.151Zm2.612,5.763-2.612-1.508a1.9,1.9,0,0,1-.913-1.44v-2.612c0-.5.409-.677.913-.387l2.612,1.508a1.9,1.9,0,0,1,.913,1.441v2.612c0,.5-.409.676-.913.385" transform="translate(-2309 1345.999)" fill="#563920"/>
      <path id="path3726" d="M411.832-269.765l-.015-.021a1.434,1.434,0,0,0-.545-.436c-.321-.185-.545-.252-.545-.195l-.015.005-.015-.021c0-.052-.183-.215-.455-.383v1.443l-.007.169c-.032.176-.189.2-.381.091a.789.789,0,0,1-.385-.593l.087-.044.085.143.213.309c.231.133.208-.148.208-.148v-1.473c-.273-.147-.456-.2-.456-.144l-.015.005-.015-.021a1.435,1.435,0,0,0-.545-.436c-.321-.185-.545-.251-.545-.193l-.015,0-.015-.021c.025-.648.723-.9,1.569-.476l.125-.009.125.153a3.539,3.539,0,0,1,1.569,2.288l-.015.005" transform="translate(-2309 1345.999)" fill="#563920"/>
      <path id="path3728" d="M408.847-273.366c-.4-.232-.731-.093-.731.309v2.612a1.517,1.517,0,0,0,.731,1.151l2.611,1.508c.4.232.731.093.731-.309v-2.611a1.519,1.519,0,0,0-.731-1.152Zm2.611,5.764-2.611-1.508a1.9,1.9,0,0,1-.913-1.441v-2.612c0-.5.409-.676.913-.385l2.611,1.508a1.894,1.894,0,0,1,.913,1.44v2.612c0,.5-.409.677-.913.387" transform="translate(-2309 1345.999)" fill="#563920"/>
      <path id="path3730" d="M415.984-267.85c-.011.407-.285.583-.635.413v1.288l.449.26v.167l-1.009-.583v-.167l.448.259V-267.5a1.557,1.557,0,0,1-.635-1.145v-.953l1.381.8v.953" transform="translate(-2309 1345.999)" fill="#563920"/>
      <path id="path3732" d="M413.988-270.4c-.4-.232-.729-.093-.729.308v2.612a1.517,1.517,0,0,0,.729,1.152l2.612,1.508c.4.232.729.093.729-.309v-2.612a1.515,1.515,0,0,0-.729-1.151Zm2.612,5.763-2.612-1.508a1.9,1.9,0,0,1-.913-1.44v-2.612c0-.5.409-.677.913-.387l2.612,1.508a1.9,1.9,0,0,1,.913,1.441v2.612c0,.5-.409.676-.913.385" transform="translate(-2309 1345.999)" fill="#563920"/>
      <path id="path4742" d="M338.294-230.583c-.183.069-.964.14-1.165.2-1.071-1.805-3.727-5.256-3.439-6.455.275-1.148.835-2.145,3.347-1.116.952.391,2.647,3.476,3.276,4.755a3.092,3.092,0,0,1-2.019,2.619" transform="translate(-2309 1345.999)" fill="#e3b68c"/>
      <path id="path5798" d="M339.923-250.666a13.785,13.785,0,0,0,2.571-2.583,3.25,3.25,0,0,1,.688.691l9.328,11.119a3.265,3.265,0,0,1-.891,4.52,3.077,3.077,0,0,1-4.383-.756l-9.328-11.131a3.29,3.29,0,0,1-.344-.624,8.149,8.149,0,0,0,2.359-1.236" transform="translate(-2309 1345.999)" fill="#1c385c"/>
      <path id="path5800" d="M288.378-269.066a3.177,3.177,0,0,0,4.423.792,3.175,3.175,0,0,0,.765-4.425l-8.632-12.029a3.178,3.178,0,0,0-4.423-.791,3.175,3.175,0,0,0-.765,4.425l8.632,12.028" transform="translate(-2309 1345.999)" fill="#27558f"/>
      <path id="path5802" d="M292.334-258.039a2.941,2.941,0,0,0,3.537,2.177A2.7,2.7,0,0,0,297.962-259s-3.241-11.873-4.229-13.392l-1.872-.9c-1.735-.221-3.263,4.495-3.263,4.495l3.736,10.76" transform="translate(-2309 1345.999)" fill="#27558f"/>
      <path id="path5804" d="M297.059-258.77a16.8,16.8,0,0,1,.775,1.863c.492,1.421.844,3.1.356,4.1-1.041,2.133-1.987,1.808-2.832,1.219-1.185-.823-.708-4.831-1.74-6.339a7.82,7.82,0,0,1,3.441-.84" transform="translate(-2309 1345.999)" fill="#e3b68c"/>
      <path id="path5806" d="M281.926-217.389s-4.971-1.221-3.637,4.359c.051.215.535,1.464,2.485,1.171,1.292-.193,2.5.961,2.88,1.245a8.809,8.809,0,0,0,6.721,1.377c4.036-.572-.5-4.332-3.291-5.66-2.917-1.389-5.159-2.492-5.159-2.492" transform="translate(-2309 1345.999)" fill="#fff"/>
      <path id="path5808" d="M269.379-217.81s-4.12-.425-3.765,3.141a3.754,3.754,0,0,0,2.612,2.389,12.578,12.578,0,0,1,2.881,1.244c2.239,1.684,5.037,3.091,6.064,2.875,3.988-.843-.839-5.156-2.633-7.156a7.859,7.859,0,0,0-5.159-2.493" transform="translate(-2309 1345.999)" fill="#fff"/>
      <path id="path5810" d="M282.177-213.665a10.168,10.168,0,0,1-4.165-1.555l-1.6-45.847,9.112,1.272,1.557,44.9a7.675,7.675,0,0,1-4.908,1.232" transform="translate(-2309 1345.999)" fill="#fff"/>
      <path id="path5812" d="M270.381-213.834a10.174,10.174,0,0,0,4.188-1.492l2.217-45.819-9.129,1.137-2.165,44.869a7.671,7.671,0,0,0,4.889,1.3" transform="translate(-2309 1345.999)" fill="#fff"/>
      <path id="path5814" d="M285.734-252.557c0,.633-.011,1.276-.011,1.929-.412,1.687-6.4.843-8.307,1.445-5.063,1.577-10.327,2.8-10.427,1.759l-.011-.051c.512-11.109.352-8.92.673-17.669.051-1.356-2.029-15.339-1.205-16.735a8.859,8.859,0,0,1,3.235-2.26l.091-.051c.853-.421,1.737-.824,2.5-1.165l.22-.1c.483-.2.9-.381,1.216-.512a5.016,5.016,0,0,1,3.375-1.2,7.274,7.274,0,0,1,3.325.693c.12,0,.241.011.361.02a4.189,4.189,0,0,1,.884.181,4.129,4.129,0,0,1,1.989,1.456c.1.121.191.252.281.381,1.6,2.371,1.837,6.159,1.928,7.645.252,4.008-.009,11.652-.12,24.228" transform="translate(-2309 1345.999)" fill="#1f3f68"/>
      <path id="path5816" d="M285.885-249.763l-18.976,3.8c0-.2.012-.7.081-1.456,1.012-11.112,2.391-30.748,2.692-36.715l.091-.051c.853-.421,1.737-.824,2.5-1.165l.22-.1.984,6.5,7.927-.984-.633-6.509a4.189,4.189,0,0,1,.884.181,4.129,4.129,0,0,1,1.989,1.456c.588,3.316.985,10.628,1.492,18.3.36,5.428.405,10.852.6,13.952.091,1.557.151,2.572.151,2.793" transform="translate(-2309 1345.999)" fill="#fff"/>
      <path id="path5818" d="M278.526-284.053a4.137,4.137,0,0,1-2.164-.164,3.275,3.275,0,0,1-1.7-1.308l-.041-2.721,4.807-.4.16,3.352a1.5,1.5,0,0,1-1.065,1.243" transform="translate(-2309 1345.999)" fill="#e3b68c"/>
      <path id="path5820" d="M271.851-291.357c2.787,2.739,3.524,5.012,6.32,3.189a11.209,11.209,0,0,0,4.373-10.276c-.7-4.093-6.632-5.447-9.968-3.567-4.851,2.733-3.429,8-.725,10.653" transform="translate(-2309 1345.999)" fill="#3c3a3e"/>
      <path id="path5822" d="M272.47-292.822c.179,1.159,1.316,4.164,2.163,4.791,1.192.88,3.969,2.283,5.543,1.227,2.1-1.409,2.447-5.2,2.459-8.909s-2.817-4.419-5.231-2.845-5.5,2.068-4.933,5.737" transform="translate(-2309 1345.999)" fill="#efccab"/>
      <path id="path5824" d="M272.283-294.038c-.933,1.256.429-5.459.429-5.459.283-.221,6.2-1.059,6.332-1.059.075,0-.1-.067-.248-.111a4.013,4.013,0,0,1,2.336-.177c1.559.673,1.517,4.911,1.517,4.911s-.237-1.781-1.307-1.405c-.285.1-.144.683-2.075.863-1.747.164-2.141-.7-3.231.623-.456.555.2,1.508-1.325,2.316-1.015.536-.7-2.835-2.429-.5" transform="translate(-2309 1345.999)" fill="#3c3a3e"/>
      <path id="path5826" d="M343.735-264.059l-.073,26.075-29.821,17.331.073-26.075,29.821-17.331" transform="translate(-2309 1345.999)" fill="#b78040"/>
      <path id="path5828" d="M313.914-246.729l-.073,26.075L270.291-245.8l.075-26.075,43.548,25.143" transform="translate(-2309 1345.999)" fill="#ddae62"/>
      <path id="path5830" d="M343.735-264.059l-29.821,17.331-43.548-25.143L300.187-289.2l43.548,25.143" transform="translate(-2309 1345.999)" fill="#eeca7d"/>
      <path id="path5832" d="M288.585-282.459l-6.172,3.587,43.548,25.143,6.171-3.585-43.547-25.144" transform="translate(-2309 1345.999)" fill="#f9ecec"/>
      <path id="path5834" d="M325.974-253.731l6.157-3.584v6.227l-6.157,3.556v-6.2" transform="translate(-2309 1345.999)" fill="#bfa695"/>
      <path id="path5836" d="M340.562-239.493v.612l-4.659,2.689v-.612l4.659-2.689" transform="translate(-2309 1345.999)" fill="#563920"/>
      <path id="path5838" d="M339.663-239.326l-.524.3v-3.28l-.523.3.784-1.812.785.905-.523.3v3.28" transform="translate(-2309 1345.999)" fill="#563920"/>
      <path id="path5840" d="M337.326-237.975l-.524.3v-3.28l-.523.3.784-1.812.785.905-.523.3v3.28" transform="translate(-2309 1345.999)" fill="#563920"/>
      <path id="path5842" d="M335.946-242.582a2.652,2.652,0,0,0-1.279,2.016v4.573c0,.705.573.948,1.279.54l4.573-2.64a2.655,2.655,0,0,0,1.279-2.016v-4.573c0-.705-.573-.948-1.279-.54Zm-1.6,6.775v-4.573a3.322,3.322,0,0,1,1.6-2.523l4.573-2.641c.883-.508,1.6-.205,1.6.677v4.573a3.322,3.322,0,0,1-1.6,2.523l-4.573,2.641c-.883.508-1.6.205-1.6-.677" transform="translate(-2309 1345.999)" fill="#563920"/>
      <path id="path5844" d="M326.286-233.718l.027-.039a2.511,2.511,0,0,1,.955-.763c.563-.324.956-.441.956-.34l.024.009.025-.039c0-.092.321-.376.8-.669v2.525l.011.3c.056.309.332.353.667.16a1.388,1.388,0,0,0,.677-1.041l-.152-.076-.151.251a.748.748,0,0,1-.375.541c-.4.232-.363-.26-.363-.26v-2.579c.479-.257.8-.344.8-.252l.025.008.025-.037a2.5,2.5,0,0,1,.955-.763c.564-.325.956-.441.956-.34l.025.008.027-.039c-.045-1.133-1.267-1.583-2.749-.832l-.219-.016a.407.407,0,0,0-.219.268,6.19,6.19,0,0,0-2.749,4.007l.025.009" transform="translate(-2309 1345.999)" fill="#563920"/>
      <path id="path5846" d="M326.942-237.383a2.652,2.652,0,0,0-1.279,2.016v4.573c0,.705.573.947,1.279.54l4.573-2.64a2.656,2.656,0,0,0,1.277-2.016v-4.573c0-.705-.573-.947-1.277-.54Zm-1.6,6.775v-4.573a3.322,3.322,0,0,1,1.6-2.523l4.573-2.64c.881-.511,1.6-.207,1.6.676v4.573a3.325,3.325,0,0,1-1.6,2.523l-4.573,2.64c-.883.509-1.6.207-1.6-.676" transform="translate(-2309 1345.999)" fill="#563920"/>
      <path id="path5848" d="M319.015-230.366c.019.713.5,1.02,1.112.723v2.259l-.787.453v.293l1.768-1.021v-.292l-.787.453v-2.257a2.716,2.716,0,0,0,1.111-2.007v-1.668l-2.417,1.4v1.668" transform="translate(-2309 1345.999)" fill="#563920"/>
      <path id="path5850" d="M317.937-232.185a2.654,2.654,0,0,0-1.277,2.016v4.573c0,.705.573.947,1.277.54l4.573-2.64a2.655,2.655,0,0,0,1.279-2.016v-4.573c0-.705-.573-.947-1.279-.54Zm-1.6,6.775v-4.573a3.324,3.324,0,0,1,1.6-2.523l4.573-2.641c.883-.509,1.6-.205,1.6.676v4.575a3.322,3.322,0,0,1-1.6,2.523l-4.573,2.64c-.881.509-1.6.207-1.6-.676" transform="translate(-2309 1345.999)" fill="#563920"/>
      <path id="path5852" d="M340.988-249.583a4.426,4.426,0,0,0-4.655.055,3.822,3.822,0,0,0,0,5.957l11.623,6.56a3.25,3.25,0,0,0,4.54-.7,3.246,3.246,0,0,0-.727-4.535l-10.777-7.335" transform="translate(-2309 1345.999)" fill="#1f3f68"/>
      <path id="path5854" d="M343.2-188.681s.916,2.907-.011,3.957a3.822,3.822,0,0,1-2.707.136c-.861-.173-1.8-.679-2.649-.785a7.312,7.312,0,0,1-5.076-2.992c-2.257-2.9,1.771-2.087,4.409-1.2a21.06,21.06,0,0,0,6.033.883" transform="translate(-2309 1345.999)" fill="#351d15"/>
      <path id="path5856" d="M337.142-187.537a5.441,5.441,0,0,1-2.879-3.036l-.46-30.364a4.717,4.717,0,0,1,4.644-4.787,4.715,4.715,0,0,1,4.785,4.644l.493,32.625-.007.209c-1.62,1.851-4.439,1.748-6.577.708" transform="translate(-2309 1345.999)" fill="#1b285c"/>
      <path id="path5858" d="M334.667-185.69s.915,2.907-.011,3.957a3.826,3.826,0,0,1-2.707.135c-.861-.172-1.8-.677-2.649-.784a7.312,7.312,0,0,1-5.076-2.992c-2.257-2.9,1.771-2.087,4.409-1.2a21.087,21.087,0,0,0,6.033.884" transform="translate(-2309 1345.999)" fill="#492417"/>
      <path id="path5860" d="M328.606-184.548a5.441,5.441,0,0,1-2.879-3.036l-.459-30.363a4.714,4.714,0,0,1,4.643-4.787,4.716,4.716,0,0,1,4.787,4.643l.493,32.627-.007.208c-1.62,1.852-4.439,1.749-6.579.708" transform="translate(-2309 1345.999)" fill="#1b285c"/>
      <path id="path5862" d="M329.007-247.271c-.447-.388,2.225-1.591,2.225-1.591l-.105-3.181,5.613-.571.084,2.453a2.035,2.035,0,0,1,.751-.2c.848.228,2.485,2.479,2.485,2.479s-11.016,3.011-11.053.609" transform="translate(-2309 1345.999)" fill="#e3b68c"/>
      <path id="path5864" d="M337.986-253.986c-2.592,2.8-4.083,1.872-6.737.059s-3.768-3.972-3.2-7.876c.605-4.151,3.433-4.877,8.664-3.856,5.681,1.109,4.488,8.2,1.272,11.673" transform="translate(-2309 1345.999)" fill="#613a29"/>
      <path id="path5866" d="M336.353-257.531c-.139,1.175-.772,4.623-1.492,5.264-1.013.9-3.927,1.547-5.292.495-1.825-1.405-1.753-4.531-1.811-8.284s2.495-4.4,4.588-2.833,4.444,1.641,4.007,5.359" transform="translate(-2309 1345.999)" fill="#efccab"/>
      <path id="path5868" d="M340.567-261.759c-.387-1.595-4.184-1.352-4.184-1.352-.288-.22-.027-4.449-8.473-2.345-1.667.415-.124,4.421-.124,4.421a11.547,11.547,0,0,0,1.627-.261c1.036-.244.548,1.932.912,2.219a32.829,32.829,0,0,1,2.708,4.141c.145.247.288.489.423.721.576,1-.685,2.685-.577,2.964.195.5,2.92-.013,4.092-1.188.668-.669,4.519-5.516,3.6-9.32" transform="translate(-2309 1345.999)" fill="#613a29"/>
      <path id="path5870" d="M332.873-256.685c-.325.988-.789,1.575-1.412,1.5s-.964-.728-.845-1.761,1.009-1.8,1.635-1.732.992.873.623,1.991" transform="translate(-2309 1345.999)" fill="#efccab"/>
      <path id="path5872" d="M325.359-219.921l18.5-.3c-.1-7.221-.6-17.776-.909-21.64-.18-2.259-.485-8.512-5.372-8.5,0,0,1.641,2.135-2.089,3.013-3.66.861-5.343-.995-5.343-.995-1.631.736-4.893,3.349-4.636,12.267.139,4.82-.008,11.544-.148,16.153" transform="translate(-2309 1345.999)" fill="#1f3f68"/>
      <path id="path5874" d="M325.561-232.114c-.007-1.4-.02-2.739-.056-3.96-.128-4.456.624-7.345,1.613-9.2a9.526,9.526,0,0,1,3.024,4.572c-.14.492-.269.991-.384,1.481a1.527,1.527,0,0,0-.443.4c-1.621,2.023-3.292,4.1-3.755,6.711" transform="translate(-2309 1345.999)" fill="#f57715"/>
      <path id="path5876" d="M343.516-231.449a33.131,33.131,0,0,1-2.936-2.611c-3.607-4.653-2.121-10.959-1.332-13.049a16.293,16.293,0,0,1,1.1-2.332,4.246,4.246,0,0,0-2.756-.917l.005.025a16.732,16.732,0,0,1-.023,2.833,8.193,8.193,0,0,1-.4,1.695c-.084.217-.223.536-.489.567a2.323,2.323,0,0,1-1.248-.359c-.529-.275-1.029-.6-1.529-.92-.379-.245-3.759-1.824-3.759-1.824a5.763,5.763,0,0,0-1.877,1.407c2.213-.284,4.593,1.835,5.367,2.743,2.357,2.741,2.985,5.249,2.673,7.2-.888,5.572-4.628,10.759-10.043,12.6a6.4,6.4,0,0,1-.793.363c-.036,1.657-.171,3.2-.184,4.552-.025,2.825.1,4.773.1,4.773.683.909,10.985.793,15.655-.275a3.644,3.644,0,0,0,2.833-3.176c-.009-3.651-.163-8.684-.359-13.295" transform="translate(-2309 1345.999)" fill="#1b285c"/>
      <path id="path5878" d="M310.827-236.169c-.149.127-.859.459-1.029.58-1.619-1.336-5.287-3.683-5.423-4.908-.131-1.172.059-2.3,2.771-2.183,1.028.044,3.668,2.372,4.693,3.361a3.094,3.094,0,0,1-1.012,3.149" transform="translate(-2309 1345.999)" fill="#e3b68c"/>
      <path id="path5880" d="M310.07-237.626a13.743,13.743,0,0,0,1.543-3.3,3.231,3.231,0,0,1,.883.416l12.543,7.3a3.267,3.267,0,0,1,.695,4.555,3.078,3.078,0,0,1-4.38.773L308.8-235.194a3.243,3.243,0,0,1-.535-.471,8.221,8.221,0,0,0,1.8-1.961" transform="translate(-2309 1345.999)" fill="#27558f"/>
      <path id="path5882" d="M331.973-240.993a4.424,4.424,0,0,0-.689-4.6,3.82,3.82,0,0,0-5.9.808l-4.913,12.408a3.249,3.249,0,0,0,1.315,4.4,3.248,3.248,0,0,0,4.393-1.339l5.8-11.677" transform="translate(-2309 1345.999)" fill="#27558f"/>
      <path id="path5884" d="M269.349-263.525a3.55,3.55,0,0,0,4.34,2.524,3.547,3.547,0,0,0,2.5-4.352l-4.452-15.931a3.549,3.549,0,0,0-4.339-2.524,3.546,3.546,0,0,0-2.5,4.351l4.451,15.932" transform="translate(-2309 1345.999)" fill="#27558f"/>
      <path id="path5886" d="M269.217-264.445a3.261,3.261,0,0,0,.067.687,3.358,3.358,0,0,0,.4,1.069,3.246,3.246,0,0,0,.725.9l.172.153.057.037,10.776,8.276a2.434,2.434,0,0,0,2.139-.039,7.064,7.064,0,0,0,1.623-.829,6.284,6.284,0,0,0,1.967-2.015,1.406,1.406,0,0,0,.152-1.288l-.143-.2-.067-.076a3.442,3.442,0,0,0-.525-.516l-10.7-8.228-.9-.687a3.562,3.562,0,0,0-4.993.581,3.531,3.531,0,0,0-.753,2.177" transform="translate(-2309 1345.999)" fill="#27558f"/>
      <path id="path5888" d="M281.243-253.506l.172.181a2.434,2.434,0,0,0,2.139-.039l.039-.019a6.763,6.763,0,0,0,1.584-.811,6.284,6.284,0,0,0,1.967-2.015l.057-.133a1.3,1.3,0,0,0,.095-1.155l-.037-.1-.105-.105-.067-.076a2.723,2.723,0,0,0-2.52.2l-.2.087a7.66,7.66,0,0,0-1.031.581,7.261,7.261,0,0,0-1.327,1.136l-.267.335c-.592.755-.792,1.48-.5,1.928" transform="translate(-2309 1345.999)" fill="#1c3b60"/>
      <path id="path5890" d="M281.741-255.434a3.469,3.469,0,0,0,.7,1.021c.144.143.316.3.507.459.2.181.42.381.649.572,1.593,1.393,3.8,3.084,5.116,2.912,1.116-.153,2.119-.592,1.384-3.075-.315-1.049-1.585-2.032-2.892-2.8-.144-.087-.287-.163-.429-.239l-.316-.153a17.185,17.185,0,0,0-1.889-.84l-.2.087a7.664,7.664,0,0,0-1.031.581,7.263,7.263,0,0,0-1.327,1.136l-.267.335" transform="translate(-2309 1345.999)" fill="#e3b68c"/>
    </g>
    <path id="Path_4" data-name="Path 4" d="M32.5,0C89.67,2.233,65,17.685,65,39.5s-161.75,78.22-179.7,78.22S0,61.315,0,39.5-24.67-2.233,32.5,0Z" transform="translate(321.706 315.354)" fill="#fff" opacity="0.059"/>
    <path id="Path_5" data-name="Path 5" d="M57.354-42.524c16-7.881-20.788,56.879-20.788,67.408S147.17,92,135.3,92,0,18.692,0,8.163,41.358-34.642,57.354-42.524Z" transform="translate(41.706 342.997)" fill="#fff" opacity="0.053"/>
  </g>
</svg>
